<?xml version="1.0" encoding="iso-8859-1"?>
<!-- Generator: Adobe Illustrator 19.0.0, SVG Export Plug-In . SVG Version: 6.00 Build 0)  -->
<svg version="1.1" id="Layer_1" xmlns="http://www.w3.org/2000/svg" xmlns:xlink="http://www.w3.org/1999/xlink" x="0px" y="0px"
	 viewBox="0 0 512 512" style="enable-background:new 0 0 512 512;" xml:space="preserve">
<path style="fill:#313133;" d="M411.564,0.023c-0.262-0.005-0.509-0.005-0.774,0H255.984l0,0H101.208
	c-0.258-0.003-0.504-0.003-0.766,0c-5.194,0.02-10.299,0.436-15.282,1.218C78.514,2.283,72.082,3.977,65.93,6.257
	c-3.075,1.139-6.08,2.425-9.008,3.848c-5.854,2.845-11.393,6.242-16.55,10.119c-3.868,2.909-7.52,6.088-10.93,9.511
	c-2.273,2.282-4.437,4.672-6.485,7.16C8.619,54.316,0,76.609,0,100.868v387.84c0,12.853,10.42,23.273,23.273,23.273h36.906h65.825
	h129.981l0,0h130.012h65.825h36.906c12.853,0,23.273-10.42,23.273-23.273v-387.84C512,45.432,466.984,0.262,411.564,0.023z"/>
<path style="fill:#9BC9FF;" d="M380.121,93.07H255.984H131.879c-12.853,0-23.273,10.42-23.273,23.273v139.636v139.636
	c0,12.853,10.42,23.273,23.273,23.273h21.391h32.912h32.912h36.89h36.921h32.912h32.912h21.391c12.853,0,23.273-10.42,23.273-23.273
	V255.979V116.343C403.394,103.49,392.974,93.07,380.121,93.07z M209.455,349.07c-12.853,0-23.273-10.42-23.273-23.273
	c0-12.854,10.42-23.273,23.273-23.273c12.853,0,23.273,10.418,23.273,23.273C232.727,338.65,222.307,349.07,209.455,349.07z
	 M302.545,349.07c-12.853,0-23.273-10.42-23.273-23.273c0-12.854,10.42-23.273,23.273-23.273s23.273,10.418,23.273,23.273
	C325.818,338.65,315.398,349.07,302.545,349.07z M356.848,232.707H255.984H155.152v-93.091h100.833h100.864V232.707z"/>
<g>
	<rect x="155.152" y="139.616" style="fill:#FFFFFF;" width="100.833" height="93.091"/>
	<rect x="255.984" y="139.616" style="fill:#FFFFFF;" width="100.864" height="93.091"/>
</g>
<g>
	<path style="fill:#222224;" d="M106.724,465.434l46.545-46.545h-21.391c-12.853,0-23.273-10.42-23.273-23.273V255.979V116.343
		c0-12.853,10.42-23.273,23.273-23.273h124.106V0.023H101.208c-0.258-0.003-0.504-0.003-0.766,0.002C45.03,0.24,0,45.418,0,100.868
		v387.84c0,12.853,10.42,23.273,23.273,23.273h36.906l23.273-23.273L106.724,465.434z"/>
	<polygon style="fill:#222224;" points="219.094,418.888 172.549,465.434 149.276,488.707 126.003,511.979 255.984,511.979 
		255.984,418.888 	"/>
</g>
<polygon style="fill:#898890;" points="172.549,465.434 219.094,418.888 186.182,418.888 153.27,418.888 106.724,465.434 
	83.451,488.707 60.179,511.979 126.003,511.979 149.276,488.707 "/>
<polygon style="fill:#ACABB1;" points="405.276,465.434 358.73,418.888 325.818,418.888 292.906,418.888 339.451,465.434 
	362.724,488.707 385.997,511.979 451.821,511.979 428.549,488.707 "/>
<path style="fill:#57A4FF;" d="M108.606,116.343v139.636v139.636c0,12.853,10.42,23.273,23.273,23.273h21.391h32.912h32.912h36.89
	V232.707H155.152v-93.091h100.833V93.07H131.879C119.026,93.07,108.606,103.49,108.606,116.343z M209.455,302.525
	c12.853,0,23.273,10.418,23.273,23.273c0,12.853-10.42,23.273-23.273,23.273c-12.853,0-23.273-10.42-23.273-23.273
	C186.182,312.943,196.602,302.525,209.455,302.525z"/>
<circle style="fill:#B3D8F4;" cx="209.455" cy="325.802" r="23.273"/>
<circle style="fill:#BDFDFF;" cx="302.545" cy="325.802" r="23.273"/>
<g>
</g>
<g>
</g>
<g>
</g>
<g>
</g>
<g>
</g>
<g>
</g>
<g>
</g>
<g>
</g>
<g>
</g>
<g>
</g>
<g>
</g>
<g>
</g>
<g>
</g>
<g>
</g>
<g>
</g>
</svg>
