<svg aria-hidden="true" style="position: absolute; width: 0; height: 0; overflow: hidden;" version="1.1" xmlns="http://www.w3.org/2000/svg" xmlns:xlink="http://www.w3.org/1999/xlink">
<defs>
<symbol id="icon-person-black" viewBox="0 0 32 32">
<path d="M16 16c4.42 0 8-3.58 8-8s-3.58-8-8-8c-4.42 0-8 3.58-8 8s3.58 8 8 8zM16 20c-5.34 0-16 2.68-16 8v2c0 1.1 0.9 2 2 2h28c1.1 0 2-0.9 2-2v-2c0-5.32-10.66-8-16-8z"></path>
</symbol>
<symbol id="icon-phone-black" viewBox="0 0 32 32">
<path d="M27.419 20.852l-4.201-0.48c-1.009-0.116-2.002 0.232-2.713 0.943l-3.044 3.044c-4.681-2.382-8.519-6.203-10.901-10.901l3.060-3.060c0.711-0.711 1.059-1.704 0.943-2.713l-0.48-4.168c-0.198-1.671-1.604-2.928-3.292-2.928h-2.862c-1.869 0-3.424 1.555-3.308 3.424 0.877 14.126 12.174 25.407 26.284 26.284 1.869 0.116 3.424-1.439 3.424-3.308v-2.861c0.016-1.671-1.241-3.077-2.911-3.275z"></path>
</symbol>
<symbol id="icon-email-black" viewBox="0 0 43 32">
<path d="M37.333 0h-32c-2.2 0-3.98 1.8-3.98 4l-0.020 24c0 2.2 1.8 4 4 4h32c2.2 0 4-1.8 4-4v-24c0-2.2-1.8-4-4-4zM36.533 8.5l-14.14 8.84c-0.64 0.4-1.48 0.4-2.12 0l-14.14-8.84c-0.5-0.32-0.8-0.86-0.8-1.44 0-1.34 1.46-2.14 2.6-1.44l13.4 8.38 13.4-8.38c1.14-0.7 2.6 0.1 2.6 1.44 0 0.58-0.3 1.12-0.8 1.44z"></path>
</symbol>
<symbol id="icon-close-black-cross" viewBox="0 0 32 32">
<path d="M32 3.223l-3.223-3.223-12.777 12.777-12.777-12.777-3.223 3.223 12.777 12.777-12.777 12.777 3.223 3.223 12.777-12.777 12.777 12.777 3.223-3.223-12.777-12.777 12.777-12.777z"></path>
</symbol>
<symbol id="icon-envelope" viewBox="0 0 43 32">
<path d="M38.667 0h-34.667c-2.206 0-4 1.794-4 4v24c0 2.206 1.794 4 4 4h34.667c2.206 0 4-1.794 4-4v-24c0-2.206-1.794-4-4-4zM38.667 2.667c0.181 0 0.353 0.038 0.511 0.103l-17.844 15.466-17.844-15.466c0.158-0.066 0.33-0.103 0.511-0.103h34.667zM38.667 29.333h-34.667c-0.736 0-1.333-0.598-1.333-1.333v-22.413l17.793 15.421c0.251 0.217 0.563 0.326 0.874 0.326s0.622-0.108 0.874-0.326l17.793-15.421v22.413c0 0.736-0.598 1.333-1.333 1.333z"></path>
</symbol>
<symbol id="icon-smartphone-1" viewBox="0 0 20 32">
<path d="M17 0h-14c-1.654 0-3 1.346-3 3v26c0 1.654 1.346 3 3 3h14c1.654 0 3-1.346 3-3v-26c0-1.654-1.346-3-3-3zM3 2h14c0.552 0 1 0.448 1 1v21h-16v-21c0-0.552 0.448-1 1-1zM17 30h-14c-0.552 0-1-0.448-1-1v-3h16v3c0 0.552-0.448 1-1 1z"></path>
<path d="M4.707 27.478c0.391 0.365 0.391 0.956 0 1.321s-1.024 0.365-1.414 0c-0.391-0.365-0.391-0.956 0-1.321s1.024-0.365 1.414 0z"></path>
</symbol>
<symbol id="icon-smartphone-2" viewBox="0 0 32 32">
<path d="M25.956 8.25h-3.389v-6.088c0-1.19-0.972-2.162-2.161-2.162h-14.267c-1.19 0-2.161 0.972-2.161 2.162v27.677c0 1.189 0.972 2.162 2.161 2.162h14.267c1.188 0 2.161-0.972 2.161-2.162v-6.95h3.389c1.14 0 2.067-0.921 2.067-2.053v-10.534c0-1.131-0.927-2.053-2.067-2.053zM10.989 1.558h4.564c0.144 0 0.262 0.117 0.262 0.261 0 0.143-0.118 0.261-0.262 0.261h-4.564c-0.144 0-0.261-0.118-0.261-0.261 0-0.144 0.117-0.261 0.261-0.261zM13.272 30.921c-0.596 0-1.081-0.484-1.081-1.082 0-0.597 0.484-1.081 1.081-1.081s1.082 0.484 1.082 1.081c-0 0.598-0.485 1.082-1.082 1.082zM21.062 28.001h-15.581v-24.573h15.581v4.822h-8.907c-1.139 0-2.065 0.922-2.065 2.054v10.534c0 1.132 0.927 2.053 2.065 2.053h1.248v3.529l3.529-3.529h4.13v5.111zM27.108 20.837c0 0.628-0.516 1.138-1.152 1.138h-9.401l-2.236 2.236v-2.236h-2.163c-0.634 0-1.151-0.511-1.151-1.138v-10.534c0-0.628 0.516-1.139 1.151-1.139h13.801c0.634 0 1.152 0.511 1.152 1.139v10.534zM24.822 12.428c0 0.313-0.237 0.565-0.53 0.565h-10.446c-0.292 0-0.53-0.252-0.53-0.565 0-0.311 0.238-0.565 0.53-0.565h10.446c0.292 0 0.53 0.254 0.53 0.565zM24.822 15.493c0 0.313-0.237 0.566-0.53 0.566h-10.446c-0.292 0-0.53-0.253-0.53-0.566 0-0.31 0.238-0.564 0.53-0.564h10.446c0.292-0 0.53 0.253 0.53 0.564zM24.822 18.558c0 0.312-0.237 0.566-0.53 0.566h-10.446c-0.292 0-0.53-0.254-0.53-0.566s0.238-0.564 0.53-0.564h10.446c0.292-0 0.53 0.253 0.53 0.564z"></path>
</symbol>
<symbol id="icon-language" viewBox="0 0 32 32">
<path d="M16 0c-8.836 0-16 7.164-16 16s7.164 16 16 16 16-7.164 16-16-7.164-16-16-16zM29.964 15h-5.38q-0.009-0.692-0.072-1.381c-0.196-2.058-0.698-3.949-1.462-5.7l0.047 0.12c1.464-0.278 2.709-0.605 3.92-1.007l-0.214 0.062c1.786 2.147 2.943 4.874 3.159 7.861l0.003 0.045zM11.068 8.098c1.111 0.201 2.462 0.361 3.833 0.443l0.099 0.005v6.454h-5.583q0.009-0.59 0.063-1.176c0.192-2.196 0.829-4.128 1.588-5.726zM17 2.588c1.147 1.132 2.155 2.4 2.999 3.779l0.049 0.087q-0.949 0.092-1.916 0.125-0.563 0.021-1.133 0.021zM15 2.588v3.953q-1.453-0.089-2.915-0.307c0.234-0.379 0.468-0.726 0.692-1.041 0.693-0.968 1.423-1.819 2.22-2.602l0.003-0.003zM15 17v6.455q-1.688 0.098-3.391 0.359-1.738-3.433-2.101-6.813zM15 25.458v3.542c-0.787-0.968-1.56-2.049-2.265-3.177l-0.079-0.136q1.175-0.157 2.344-0.229zM17 25.396q0.567 0 1.133 0.021c0.446 0.016 0.888 0.043 1.328 0.077-0.815 1.336-1.626 2.481-2.507 3.567l0.047-0.060zM18.204 23.418q-0.601-0.021-1.204-0.022v-6.396h5.491q-0.348 3.262-1.984 6.582-1.139-0.12-2.303-0.163zM17 15v-6.397q0.602 0 1.204-0.022 1.444-0.052 2.851-0.226c0.753 1.588 1.274 3.433 1.46 5.375l0.005 0.068q0.054 0.6 0.063 1.202zM25.238 5.481c-0.8 0.241-1.827 0.48-2.873 0.663l-0.173 0.025c-0.471-0.856-0.931-1.575-1.43-2.264l0.043 0.062c-0.404-0.563-0.802-1.063-1.172-1.492 2.173 0.594 4.054 1.633 5.62 3.019l-0.015-0.013zM12.368 2.476c-0.371 0.432-0.769 0.931-1.172 1.492-0.388 0.531-0.789 1.148-1.158 1.785l-0.055 0.103q-1.408-0.298-2.821-0.714c1.461-1.201 3.204-2.12 5.11-2.644l0.098-0.023zM5.513 6.726q1.769 0.574 3.536 0.973c-0.796 1.728-1.35 3.735-1.556 5.843l-0.006 0.077q-0.063 0.688-0.072 1.381h-5.378c0.23-3.2 1.508-6.063 3.489-8.287l-0.012 0.014zM2.036 17h5.464q0.339 3.58 2.066 7.188c-1.647 0.35-3.004 0.724-4.33 1.167l0.28-0.081c-1.97-2.21-3.25-5.073-3.478-8.228l-0.003-0.045zM7.161 26.858q1.688-0.5 3.375-0.826c0.814 1.396 1.624 2.586 2.506 3.716l-0.055-0.073c-2.243-0.503-4.204-1.485-5.85-2.837l0.024 0.019zM19.014 29.675c0.896-1.144 1.761-2.43 2.533-3.776l0.084-0.159c1.406 0.213 2.625 0.484 3.811 0.83l-0.204-0.051c-1.707 1.51-3.809 2.614-6.131 3.138l-0.093 0.018zM26.803 24.906c-1.161-0.394-2.579-0.753-4.033-1.010l-0.182-0.027q1.589-3.444 1.916-6.87h5.461c-0.218 3.033-1.376 5.759-3.18 7.929l0.018-0.023z"></path>
</symbol>
<symbol id="icon-facebook" viewBox="0 0 32 32">
<path d="M21.329 5.313h2.921v-5.088c-0.504-0.069-2.237-0.225-4.256-0.225-4.212 0-7.097 2.649-7.097 7.519v4.481h-4.648v5.688h4.648v14.312h5.699v-14.311h4.46l0.708-5.688h-5.169v-3.919c0.001-1.644 0.444-2.769 2.735-2.769z"></path>
</symbol>
<symbol id="icon-instagram" viewBox="0 0 32 32">
<path d="M31.969 9.408c-0.075-1.7-0.35-2.869-0.744-3.882-0.406-1.075-1.032-2.038-1.851-2.838-0.8-0.813-1.769-1.444-2.832-1.844-1.019-0.394-2.182-0.669-3.882-0.744-1.713-0.081-2.257-0.1-6.601-0.1s-4.888 0.019-6.595 0.094c-1.7 0.075-2.869 0.35-3.882 0.744-1.075 0.406-2.038 1.031-2.838 1.85-0.813 0.8-1.444 1.769-1.844 2.832-0.394 1.019-0.669 2.182-0.744 3.882-0.081 1.713-0.1 2.257-0.1 6.601s0.019 4.888 0.094 6.595c0.075 1.7 0.35 2.869 0.744 3.882 0.406 1.075 1.038 2.038 1.85 2.838 0.8 0.813 1.769 1.444 2.832 1.844 1.019 0.394 2.182 0.669 3.882 0.744 1.706 0.075 2.25 0.094 6.595 0.094s4.888-0.019 6.595-0.094c1.7-0.075 2.869-0.35 3.882-0.744 2.151-0.832 3.851-2.532 4.682-4.682 0.394-1.019 0.669-2.182 0.744-3.882 0.075-1.707 0.094-2.251 0.094-6.595s-0.006-4.888-0.081-6.595zM29.087 22.473c-0.069 1.563-0.331 2.407-0.55 2.969-0.538 1.394-1.644 2.5-3.038 3.038-0.563 0.219-1.413 0.481-2.969 0.55-1.688 0.075-2.194 0.094-6.464 0.094s-4.782-0.019-6.464-0.094c-1.563-0.069-2.407-0.331-2.969-0.55-0.694-0.256-1.325-0.663-1.838-1.194-0.531-0.519-0.938-1.144-1.194-1.838-0.219-0.563-0.481-1.413-0.55-2.969-0.075-1.688-0.094-2.194-0.094-6.464s0.019-4.782 0.094-6.464c0.069-1.563 0.331-2.407 0.55-2.969 0.256-0.694 0.663-1.325 1.2-1.838 0.519-0.531 1.144-0.938 1.838-1.194 0.563-0.219 1.413-0.481 2.969-0.55 1.688-0.075 2.194-0.094 6.464-0.094 4.276 0 4.782 0.019 6.464 0.094 1.563 0.069 2.407 0.331 2.969 0.55 0.694 0.256 1.325 0.662 1.838 1.194 0.531 0.519 0.938 1.144 1.194 1.838 0.219 0.563 0.481 1.413 0.55 2.969 0.075 1.688 0.094 2.194 0.094 6.464s-0.019 4.77-0.094 6.458z"></path>
<path d="M16.059 7.783c-4.538 0-8.22 3.682-8.22 8.22s3.682 8.22 8.22 8.22c4.539 0 8.22-3.682 8.22-8.22s-3.682-8.22-8.22-8.22zM16.059 21.335c-2.944 0-5.332-2.388-5.332-5.332s2.388-5.332 5.332-5.332c2.944 0 5.332 2.388 5.332 5.332s-2.388 5.332-5.332 5.332z"></path>
<path d="M26.524 7.458c0 1.060-0.859 1.919-1.919 1.919s-1.919-0.859-1.919-1.919c0-1.060 0.859-1.919 1.919-1.919s1.919 0.859 1.919 1.919z"></path>
</symbol>
<symbol id="menu-burger" viewBox="0 0 40 40">
<path d="M8 14.667V12h24v2.667H8zm0 6.666h24v-2.666H8v2.666zM8 28h24v-2.667H8V28z"></path>
</symbol>
<symbol id="icon-human" viewBox="0 0 32 32">
<path d="M12.029 23.836c-0.070-0.029-0.14-0.049-0.206-0.082-0.325-0.173-0.523-0.428-0.523-0.81 0-0.568 0-1.135 0-1.703 0-0.062 0-0.123 0-0.202-0.416 0-0.81 0-1.21 0-0.416 0-0.769-0.276-0.864-0.683-0.016-0.070-0.021-0.144-0.021-0.218 0-1.539 0-3.077 0-4.616 0-1.596 1.201-2.814 2.798-2.839 0.239-0.004 0.477 0 0.716 0 0.296 0 0.518-0.132 0.629-0.407 0.111-0.284 0.045-0.531-0.181-0.741-0.551-0.51-0.922-1.123-1.008-1.88-0.070-0.605 0.103-1.168 0.383-1.699 0.555-1.045 1.794-1.65 2.958-1.514 1.925 0.226 3.369 2.559 2.016 4.628-0.132 0.202-0.296 0.387-0.465 0.564-0.181 0.193-0.247 0.407-0.152 0.654 0.099 0.247 0.288 0.387 0.564 0.391 0.329 0.004 0.658-0.004 0.987 0.012 1.44 0.086 2.592 1.296 2.596 2.74 0.008 1.584 0.004 3.168 0 4.752 0 0.485-0.366 0.848-0.852 0.852-0.403 0-0.806 0-1.226 0-0.004 0.082-0.016 0.152-0.016 0.222 0 0.543 0 1.090 0 1.633 0 0.498-0.181 0.749-0.65 0.913-0.016 0.004-0.025 0.020-0.041 0.029-2.078 0.004-4.155 0.004-6.233 0.004zM11.984 19.269c0 1.181 0 2.361 0 3.542 0 0.325 0.012 0.337 0.333 0.337 1.892 0.004 3.781 0.004 5.673 0.004 0.263 0 0.288-0.025 0.288-0.296 0-2.32 0-4.645 0-6.965 0-0.428 0-0.428 0.424-0.428 0.259 0 0.255 0 0.255 0.259 0 1.477 0 2.954-0.004 4.427 0 0.169 0.049 0.214 0.214 0.21 0.317-0.012 0.638 0 0.954-0.004 0.202 0 0.259-0.053 0.259-0.247 0-1.563 0.008-3.123-0.004-4.686-0.008-1.029-0.703-1.86-1.72-2.024-0.387-0.062-0.79-0.033-1.189-0.041-0.646-0.012-1.144-0.403-1.259-1.028-0.090-0.498 0.045-0.934 0.42-1.284 0.403-0.379 0.671-0.839 0.716-1.391 0.136-1.646-1.21-2.756-2.649-2.518-1.279 0.21-1.847 1.267-1.794 2.341 0.029 0.597 0.325 1.078 0.732 1.493 0.313 0.317 0.465 0.683 0.444 1.135-0.033 0.613-0.506 1.164-1.119 1.23-0.333 0.033-0.666 0.021-1.004 0.029-1.168 0.021-2.057 0.901-2.065 2.069-0.012 1.563-0.004 3.123-0.004 4.686 0 0.189 0.053 0.243 0.243 0.243 0.329 0 0.658-0.008 0.987 0.004 0.152 0.004 0.193-0.045 0.193-0.193-0.008-0.736-0.004-1.477-0.004-2.213 0-0.773 0.004-1.543 0-2.316 0-0.132 0.041-0.185 0.173-0.173 0.107 0.008 0.218 0.012 0.325 0 0.156-0.016 0.189 0.045 0.189 0.193-0.012 1.197-0.008 2.398-0.008 3.604z"></path>
<path d="M14.987 21.030c-0.21-0.095-0.403-0.177-0.592-0.263 0.078-0.263 0.169-0.514 0.222-0.769 0.136-0.642 0.091-1.288-0.016-1.93-0.128-0.749-0.292-1.493-0.251-2.259 0.033-0.65 0.247-1.23 0.691-1.716 0.045-0.049 0.082-0.107 0.128-0.173 0.177 0.189 0.321 0.346 0.477 0.514-0.296 0.276-0.514 0.638-0.547 1.066-0.033 0.387-0.025 0.782 0.012 1.168 0.078 0.823 0.21 1.642 0.28 2.464 0.045 0.572-0.078 1.127-0.3 1.658-0.029 0.078-0.062 0.148-0.103 0.239z"></path>
</symbol>

<symbol id="icon-surgery-1" viewBox="-1 -2 40 40">
<path d="M22.372 10.288c0.040-0.209 0.065-0.42 0.065-0.637v-3.188c0-2.862-1.922-5.41-4.674-6.197l-0.502-0.143c-0.197-0.056-0.401 0.007-0.541 0.149-2.599-0.493-6.201-0.594-9.99 2.147-0.469 0.339-0.774 0.863-0.835 1.437-0.061 0.568 0.122 1.137 0.502 1.562 0.403 0.45 0.957 0.684 1.512 0.684 0.404 0 0.808-0.124 1.156-0.377 2.828-2.066 5.302-1.865 7.554-1.34 0.033 0.008 0.066 0.007 0.099 0.013 0.020 0.109 0.041 0.217 0.058 0.33-0.286 0.082-0.56 0.221-0.794 0.433-2.343 2.115-4.717 3.095-5.761 2.944-0.611-0.088-1.184 0.091-1.571 0.493l-0.132 0.138c-0.527 0.547-0.697 1.335-0.445 2.057 0.244 0.701 0.849 1.196 1.576 1.293 0.247 0.033 0.5 0.049 0.761 0.049 1.475 0 3.157-0.523 4.871-1.485-3.020 5.003-3.453 15.986-3.512 19.337-0.009 0.534 0.191 1.038 0.566 1.419 0.377 0.384 0.881 0.594 1.419 0.594h0.077c1.077 0 1.966-0.873 1.983-1.946 0.127-8.184 1.343-13.806 2.447-16.45 0.439-0.006 0.867-0.083 1.271-0.216 1.128 2.546 2.409 8.253 2.54 16.667 0.017 1.073 0.906 1.946 1.982 1.946h0.077c0.539 0 1.042-0.211 1.419-0.594 0.374-0.381 0.575-0.885 0.566-1.419-0.061-3.434-0.514-14.885-3.743-19.698zM21.334 6.464v3.188c0 1.341-1.207 2.564-2.639 2.799l-0.438-0.193c-0.044-0.019-0.085-0.044-0.128-0.066-0.322-0.187-0.8-0.61-0.904-1.254-0.134-0.821 0.384-1.788 1.495-2.796v0 0 0c0.008-0.007 0.013-0.017 0.022-0.024 0.092-0.086 0.176-0.178 0.249-0.279 0.049-0.067 0.084-0.142 0.124-0.215 0.025-0.047 0.057-0.090 0.079-0.139 0.002-0.005 0.006-0.009 0.008-0.014 0.047-0.109 0.082-0.222 0.109-0.336 0.006-0.027 0.010-0.053 0.015-0.080 0.019-0.097 0.030-0.194 0.035-0.292 0.001-0.019 0.007-0.038 0.007-0.057 0-0.013-0.003-0.025-0.003-0.038-0.001-0.122-0.008-0.245-0.031-0.367-0.024-0.125-0.063-0.246-0.109-0.362-0.010-0.027-0.023-0.052-0.035-0.079-0.040-0.090-0.087-0.177-0.141-0.26-0.017-0.026-0.032-0.052-0.050-0.077-0.072-0.102-0.151-0.199-0.242-0.286l-0.047-0.046c-0.092-0.089-0.191-0.166-0.294-0.232-0.001-0.001-0.002-0.001-0.003-0.002-0.016-0.010-0.034-0.017-0.050-0.027-0.059-0.034-0.119-0.068-0.173-0.093-0.018-0.010-0.069-0.035-0.088-0.044-0.004-0.002-0.008-0.003-0.012-0.004-0.016-0.007-0.032-0.011-0.047-0.017-0.048-0.018-0.096-0.037-0.145-0.051-0.021-0.147-0.044-0.291-0.069-0.432 0.014-0.006 0.026-0.016 0.041-0.022 0.114-0.049 0.222-0.106 0.324-0.174 0.046-0.030 0.087-0.064 0.13-0.098 0.071-0.056 0.138-0.115 0.201-0.18 0.041-0.042 0.080-0.084 0.117-0.129 0.061-0.075 0.114-0.155 0.164-0.237 0.025-0.042 0.054-0.082 0.077-0.127 0.067-0.132 0.124-0.272 0.161-0.422 0.018-0.072 0.022-0.145 0.032-0.217 0.008-0.061 0.024-0.121 0.026-0.182 0.002-0.044-0.006-0.087-0.007-0.131-0.002-0.088 0-0.175-0.013-0.262 1.381 0.984 2.256 2.6 2.256 4.357zM8.414 4.833c-0.359 0.262-0.884 0.196-1.195-0.151-0.174-0.195-0.255-0.446-0.227-0.707 0.029-0.264 0.169-0.505 0.385-0.662 2.356-1.703 4.594-2.218 6.581-2.218 1.219 0 2.344 0.194 3.341 0.425 0.235 0.055 0.434 0.199 0.561 0.406 0.098 0.16 0.144 0.341 0.135 0.526-0.003 0.062-0.012 0.124-0.028 0.185-0.022 0.086-0.058 0.164-0.101 0.237-0.009 0.015-0.018 0.031-0.028 0.046-0.047 0.070-0.101 0.133-0.164 0.187-0.006 0.006-0.013 0.009-0.020 0.015-0.143 0.114-0.32 0.188-0.514 0.201-0.003 0-0.005 0.002-0.008 0.002-0.087 0.006-0.174 0.003-0.263-0.018-2.386-0.556-5.259-0.809-8.455 1.524zM9.794 10.992c-0.317-0.043-0.572-0.253-0.68-0.563-0.116-0.332-0.041-0.678 0.199-0.928l0.132-0.138c0.137-0.142 0.322-0.177 0.471-0.177 0.056 0 0.106 0.005 0.147 0.011 1.33 0.191 3.902-0.729 6.659-3.218 0.262-0.237 0.627-0.295 0.934-0.175 0.004 0.002 0.008 0.004 0.013 0.007 0.099 0.040 0.191 0.097 0.272 0.175l0.047 0.046c0.001 0.001 0.002 0.002 0.003 0.003 0.058 0.057 0.105 0.122 0.146 0.192 0.009 0.017 0.018 0.033 0.027 0.050 0.036 0.073 0.067 0.15 0.082 0.231 0.015 0.079 0.015 0.161 0.009 0.241-0.002 0.018-0.004 0.036-0.006 0.054-0.011 0.077-0.029 0.154-0.060 0.225-0.001 0.002-0.001 0.004-0.002 0.006-0.022 0.050-0.049 0.096-0.080 0.14-0.004 0.006-0.006 0.012-0.010 0.017-0.035 0.049-0.076 0.094-0.121 0.136-2.82 2.557-5.954 3.961-8.183 3.666zM14.71 30.037c-0.007 0.474-0.402 0.86-0.879 0.86h-0.077c-0.24 0-0.464-0.094-0.632-0.264-0.165-0.168-0.254-0.391-0.249-0.626 0.115-6.469 1.001-14.417 3.115-18.372 0.323 0.555 0.778 1.028 1.325 1.371-1.166 2.699-2.471 8.55-2.603 17.032zM24.763 30.632c-0.167 0.171-0.392 0.264-0.632 0.264h-0.077c-0.477 0-0.871-0.386-0.878-0.86-0.132-8.481-1.437-14.332-2.604-17.032 0.547-0.343 1.003-0.816 1.325-1.371 2.114 3.955 3.001 11.903 3.115 18.372 0.004 0.236-0.084 0.458-0.249 0.626z"></path>
</symbol>
<symbol id="icon-treatment-2" viewBox="-1 -2 40 40">
<path d="M30.339 10.033c-0.549-2.375-2.157-4.119-4.647-5.042-1.471-0.543-4.797-1.033-6.778 0.309-0.057-0.14-0.117-0.282-0.216-0.407l-2.954-3.608c-0.492-0.611-1.468-0.713-2.080-0.215l-2.889 2.359-2.36-2.888c-0.251-0.304-0.605-0.495-0.998-0.534s-0.781 0.079-1.080 0.331l-3.613 2.951c-0.304 0.25-0.496 0.603-0.536 0.995s0.076 0.779 0.325 1.084l2.362 2.887-2.89 2.362c-0.304 0.249-0.492 0.603-0.534 0.997-0.038 0.394 0.079 0.778 0.331 1.081l2.951 3.614c0.278 0.338 0.684 0.533 1.121 0.539 0.314 0.549 0.676 1.051 1.075 1.489 1.38 1.517 1.78 2.395 2.004 3.396 0.051 0.233 0.165 0.881 0.172 1.015 0.351 8.381 3.218 9.113 3.91 9.168 0.202 0.056 0.397 0.083 0.59 0.083 0.35 0 0.684-0.094 0.989-0.28 1.425-0.878 1.862-3.588 2.249-5.978 0.138-0.861 0.271-1.674 0.422-2.146 0.251-0.777 0.459-0.98 0.459-1.018 0.184 0.1 0.49 0.685 0.528 0.919 0.052 0.361 0.090 0.83 0.132 1.355 0.22 2.698 0.548 6.766 3.427 7.060 0.203 0.046 0.692 0.088 1.294-0.276 1.356-0.823 2.358-3.171 2.976-6.984l0.093-0.608c0.225-1.525 0.532-3.613 1.788-4.934 1.451-1.523 3.213-5.467 2.376-9.079zM3.455 4.6c-0.058-0.074-0.061-0.149-0.056-0.188 0.003-0.040 0.023-0.117 0.094-0.178l3.617-2.954c0.073-0.060 0.149-0.063 0.188-0.057 0.040 0.004 0.117 0.021 0.174 0.092l2.36 2.889-4.015 3.279-2.363-2.883zM2.722 11.926c-0.060-0.074-0.063-0.15-0.058-0.189 0.002-0.040 0.021-0.117 0.090-0.175l11.677-9.546c0.060-0.048 0.122-0.059 0.165-0.059 0.078 0 0.152 0.033 0.202 0.097l2.954 3.611c0.062 0.074 0.063 0.152 0.058 0.191s-0.021 0.115-0.093 0.175l-11.677 9.547c-0.164 0.137-0.288 0.057-0.366-0.036l-2.954-3.616zM14.656 10.107l2.365 2.89c0.055 0.065 0.060 0.137 0.055 0.184-0.005 0.039-0.021 0.119-0.095 0.177l-3.613 2.954c-0.111 0.088-0.278 0.075-0.365-0.035l-2.36-2.891 4.013-3.28zM27.079 18.275c-1.524 1.602-1.876 4.006-2.108 5.599l-0.089 0.587c-0.71 4.362-1.761 5.685-2.325 6.086-0.29 0.206-0.476 0.18-0.454 0.188-0.043-0.015-0.090-0.025-0.136-0.027-1.9-0.164-2.181-3.645-2.366-5.949-0.045-0.557-0.085-1.051-0.142-1.433-0.058-0.407-0.59-1.874-1.622-1.961-1.143-0.121-1.573 1.377-1.729 1.862-0.178 0.56-0.312 1.377-0.464 2.322-0.293 1.812-0.735 4.55-1.687 5.137-0.127 0.076-0.319 0.154-0.653 0.047-0.048-0.017-0.127-0.026-0.177-0.029-0.026-0.001-2.478-0.237-2.807-8.011-0.013-0.269-0.153-1.019-0.197-1.223-0.31-1.385-0.931-2.456-2.293-3.953-0.308-0.334-0.585-0.726-0.838-1.144l2.711-2.216 2.36 2.892c0.29 0.355 0.716 0.537 1.142 0.537 0.33 0 0.659-0.108 0.934-0.331l3.614-2.954c0.307-0.252 0.497-0.608 0.535-1.002 0.037-0.391-0.078-0.774-0.329-1.076l-2.361-2.888 2.674-2.187c0.258 0.089 0.549 0.008 0.704-0.232 1.139-1.749 4.716-1.365 6.291-0.783 2.118 0.785 3.425 2.188 3.885 4.173 0.708 3.035-0.75 6.577-2.073 7.965z"></path>
</symbol>
<symbol id="icon-implantation-3" viewBox="6 5 20 20">
<path  d="M12.785 15.487c-0.043-0.184-0.066-0.345-0.115-0.5-0.185-0.575-0.504-1.075-0.893-1.539-0.751-0.894-1.127-1.93-1.13-3.098-0.003-0.503-0.010-1.009 0.003-1.513 0.023-0.908 0.435-1.601 1.239-2.026 0.811-0.427 1.618-0.358 2.386 0.141 0.072 0.049 0.145 0.102 0.217 0.151 0.442 0.303 0.84 0.306 1.282-0.003 0.32-0.224 0.649-0.418 1.038-0.506 1.275-0.289 2.606 0.608 2.758 1.907 0.066 0.562 0.030 1.138 0.040 1.707 0.010 0.464-0.040 0.917-0.158 1.365-0.184 0.694-0.501 1.319-0.969 1.864-0.438 0.51-0.778 1.072-0.952 1.726-0.026 0.099-0.030 0.201-0.043 0.319 0.082 0 0.142 0 0.201 0 0.949 0 1.901 0 2.85 0 0.722 0 1.216 0.395 1.377 1.095 0.451 1.963 0.906 3.923 1.361 5.886 0.059 0.256-0.046 0.385-0.313 0.385-2.152 0-4.307 0-6.458 0-0.204 0-0.326-0.102-0.323-0.266s0.122-0.26 0.329-0.26c1.987 0 3.977 0 5.964 0 0.069 0 0.142 0 0.227 0-0.145-0.622-0.283-1.23-0.425-1.835-0.296-1.279-0.59-2.558-0.89-3.837-0.096-0.408-0.386-0.638-0.801-0.638-1.021-0.003-2.043 0-3.087 0 0 0.079 0 0.155 0 0.227-0.003 0.194-0.099 0.293-0.293 0.296-0.082 0.003-0.165 0-0.247 0-0.076 0-0.152 0-0.241 0 0 0.102 0 0.191 0 0.293 0.066-0.010 0.128-0.020 0.191-0.026 0.175-0.016 0.303 0.076 0.323 0.23 0.016 0.145-0.082 0.263-0.247 0.293-0.086 0.013-0.171 0.026-0.267 0.043 0 0.171 0 0.339 0 0.513 0.082-0.010 0.155-0.023 0.231-0.026 0.152-0.007 0.27 0.095 0.287 0.237 0.013 0.135-0.079 0.253-0.221 0.283-0.049 0.010-0.099 0.013-0.145 0.023-0.049 0.007-0.096 0.016-0.152 0.026 0 0.171 0 0.339 0 0.516 0.069-0.010 0.128-0.020 0.188-0.026 0.175-0.020 0.306 0.069 0.329 0.22s-0.079 0.273-0.254 0.303c-0.086 0.013-0.171 0.026-0.264 0.043 0 0.171 0 0.332 0 0.51 0.079-0.010 0.152-0.023 0.224-0.026 0.155-0.010 0.273 0.085 0.293 0.227 0.016 0.141-0.076 0.263-0.227 0.293-0.092 0.016-0.184 0.030-0.297 0.046 0 0.224 0.013 0.447-0.007 0.668-0.010 0.108-0.056 0.237-0.132 0.316-0.395 0.411-0.804 0.812-1.206 1.213-0.178 0.178-0.297 0.178-0.478 0-0.379-0.375-0.748-0.756-1.134-1.124-0.148-0.141-0.244-0.293-0.211-0.503 0.007-0.036-0.007-0.076-0.010-0.118-0.072 0.010-0.138 0.023-0.201 0.030-0.165 0.016-0.29-0.076-0.313-0.224-0.020-0.145 0.079-0.27 0.241-0.299 0.086-0.016 0.175-0.026 0.274-0.043 0-0.168 0-0.332 0-0.513-0.072 0.010-0.148 0.023-0.221 0.026-0.155 0.007-0.274-0.089-0.293-0.23-0.016-0.138 0.076-0.263 0.231-0.293 0.092-0.016 0.185-0.026 0.287-0.043 0-0.168 0-0.335 0-0.516-0.072 0.010-0.142 0.023-0.211 0.026-0.165 0.013-0.29-0.085-0.306-0.233-0.016-0.141 0.079-0.26 0.234-0.289 0.092-0.016 0.185-0.030 0.283-0.043 0-0.171 0-0.339 0-0.516-0.082 0.010-0.158 0.026-0.234 0.030-0.152 0.007-0.27-0.095-0.283-0.24-0.013-0.135 0.079-0.253 0.221-0.283 0.096-0.020 0.194-0.030 0.297-0.046 0.003-0.046 0.007-0.082 0.007-0.118 0-0.201 0-0.404 0-0.628-0.158 0-0.303 0-0.451 0-0.25 0-0.339-0.089-0.339-0.332 0-0.059 0-0.118 0-0.194-0.076 0-0.135 0-0.191 0-0.956 0-1.911 0-2.867 0-0.448 0-0.732 0.22-0.834 0.661-0.432 1.868-0.863 3.726-1.292 5.587-0.003 0.017-0.007 0.033-0.010 0.062 0.049 0.003 0.096 0.010 0.142 0.010 1.987 0 3.977 0 5.964 0 0.023 0 0.043 0 0.066 0 0.221 0 0.343 0.095 0.343 0.263s-0.125 0.263-0.346 0.263c-2.142 0-4.284 0-6.425 0-0.287 0-0.386-0.125-0.32-0.404 0.455-1.973 0.909-3.946 1.364-5.919 0.148-0.638 0.662-1.042 1.321-1.042 0.929 0 1.855 0 2.784 0 0.092 0 0.184 0 0.329 0zM17.042 14.96c0.221-0.799 0.699-1.44 1.206-2.075 0.478-0.598 0.751-1.302 0.801-2.068 0.043-0.661 0.036-1.325 0.030-1.986-0.007-0.651-0.303-1.157-0.857-1.499-0.643-0.398-1.407-0.345-2.046 0.138-0.339 0.256-0.712 0.414-1.143 0.385-0.382-0.023-0.695-0.204-1.002-0.421-0.59-0.424-1.226-0.497-1.878-0.164-0.649 0.332-0.969 0.885-0.979 1.611-0.007 0.487 0 0.977 0 1.463 0.003 1.062 0.349 1.993 1.031 2.805 0.138 0.164 0.283 0.326 0.386 0.51 0.237 0.418 0.448 0.848 0.685 1.305 0.557 0 1.163 0 1.773 0 0.217 0 0.343 0.099 0.339 0.27-0.003 0.164-0.122 0.256-0.333 0.256-0.534 0-1.064 0-1.598 0-0.056 0-0.115 0-0.168 0 0 0.191 0 0.352 0 0.516 1.229 0 2.452 0 3.674 0 0-0.174 0-0.335 0-0.513-0.247 0-0.488 0-0.728 0-0.198 0-0.313-0.095-0.32-0.256-0.003-0.164 0.119-0.27 0.32-0.27 0.27-0.007 0.534-0.007 0.807-0.007zM16.182 20.6c-0.718 0.102-1.41 0.201-2.099 0.299-0.020 0.253-0.020 0.253 0.135 0.408 0.201 0.201 0.405 0.401 0.603 0.605 0.099 0.102 0.181 0.217 0.274 0.332 0.376-0.375 0.708-0.704 1.035-1.032 0.023-0.026 0.046-0.066 0.049-0.099 0.007-0.161 0.003-0.326 0.003-0.513zM16.176 16.552c-0.708 0-1.4 0-2.092 0 0 0.224 0 0.434 0 0.661 0.702-0.099 1.394-0.197 2.092-0.299 0-0.128 0-0.24 0-0.362zM14.083 18.262c0.705-0.099 1.397-0.197 2.092-0.299 0-0.178 0-0.339 0-0.52-0.705 0.099-1.397 0.197-2.092 0.299 0 0.178 0 0.342 0 0.52zM14.083 19.314c0.705-0.099 1.397-0.197 2.089-0.296 0-0.178 0-0.339 0-0.52-0.705 0.099-1.397 0.197-2.089 0.296 0 0.178 0 0.342 0 0.52zM14.083 20.37c0.712-0.102 1.404-0.201 2.089-0.299 0-0.184 0-0.345 0-0.52-0.705 0.102-1.4 0.201-2.089 0.299 0 0.181 0 0.339 0 0.52z"></path>
<path  d="M15.148 8.913c-0.643-0.010-1.196-0.224-1.687-0.602-0.132-0.099-0.155-0.256-0.069-0.375 0.089-0.122 0.241-0.148 0.379-0.046 0.32 0.233 0.662 0.404 1.058 0.46 0.577 0.085 1.097-0.066 1.568-0.395 0.227-0.158 0.366-0.164 0.474-0.020s0.049 0.296-0.175 0.454c-0.471 0.329-0.989 0.513-1.549 0.523z"></path>
<path  d="M11.974 10.1c0.152 0.007 0.25 0.122 0.254 0.303 0.013 0.552 0.148 1.072 0.428 1.549 0.102 0.174 0.227 0.335 0.346 0.497 0.115 0.155 0.112 0.309-0.010 0.408-0.129 0.102-0.273 0.076-0.399-0.076-0.57-0.684-0.873-1.473-0.893-2.364 0-0.194 0.112-0.322 0.273-0.316z"></path>
<path  d="M11.971 9.173c0.142 0.003 0.257 0.122 0.257 0.263 0 0.148-0.129 0.27-0.277 0.26-0.142-0.007-0.254-0.132-0.247-0.273 0.003-0.138 0.125-0.253 0.267-0.25z"></path>
</symbol>
<symbol id="icon-periodontologic-4" viewBox="-1 -2 38 38">
<path d="M9.207 14.138c0 0.376-0.307 0.684-0.684 0.684-0.368 0-0.717 0.095-1.046 0.285-0.76 0.438-1.23 1.303-1.23 2.254 0 0.27 0.041 0.542 0.125 0.807 0.007 0.021 0.047 0.158 0.051 0.179 0.021 0.054 0.174 0.291 0.29 0.465 0.371 0.579 0.826 1.283 1.139 2.238 0.118 0.361-0.079 0.745-0.436 0.864-0.073 0.023-0.142 0.031-0.214 0.031-0.288 0-0.553-0.181-0.651-0.47-0.257-0.788-0.641-1.384-0.98-1.91-0.167-0.251-0.38-0.597-0.421-0.692-0.021-0.043-0.032-0.086-0.041-0.131l0.61-0.369-0.655 0.2c-0.124-0.398-0.187-0.807-0.187-1.215 0-1.439 0.731-2.756 1.912-3.439 0.539-0.313 1.118-0.471 1.73-0.471 0.382 0.006 0.687 0.309 0.687 0.69zM29.508 12.454v15.339c0 0.377-0.307 0.684-0.684 0.684h-8.059c-0.544 1.589-1.955 2.879-3.902 3.491-0.068 0.021-0.136 0.032-0.205 0.032-0.142 0-0.286-0.046-0.403-0.131-0.176-0.134-0.28-0.334-0.28-0.553 0-0.021 0.005-0.096 0.008-0.117 0-4.105-1.761-6.981-3.342-6.981-1.567 0-3.313 2.826-3.342 6.893 0.022 0.066 0.030 0.135 0.030 0.204 0 0.419-0.398 0.742-0.804 0.671-0.038-0.003-0.077-0.008-0.112-0.023-2.532-0.796-4.163-2.73-4.163-4.922 0.146-1.505 0.284-4.064 0.034-4.826-0.166-0.495-0.449-0.939-0.724-1.362-0.324-0.501-0.659-1.020-0.787-1.625-0.182-0.562-0.282-1.215-0.282-1.871 0-2.283 1.19-4.394 3.106-5.507 1.496-0.857 3.267-0.961 4.83-0.429 0.365-3.144 2.403-5.503 5.518-6.565v-4.171c0.001-0.379 0.307-0.684 0.684-0.684h6.61c0.376 0 0.684 0.305 0.684 0.684v4.17c3.448 1.177 5.585 3.941 5.585 7.601zM22.792 17.358c0 0.673-0.097 1.327-0.297 1.942-0.109 0.54-0.447 1.058-0.77 1.563-0.278 0.427-0.564 0.865-0.727 1.359-0.021 0.064-0.035 0.158-0.049 0.245h7.194v-9.327h-6.923c0.988 1.141 1.572 2.634 1.572 4.217zM17.313 4.495c0.823-0.165 1.694-0.261 2.623-0.261s1.797 0.096 2.62 0.261v-3.125h-5.243v3.125zM11.754 12.064c0.313 0.202 0.617 0.429 0.888 0.697 1.837-1.793 4.749-2.208 7.009-0.924 0.085-0.040 0.183-0.067 0.285-0.067h8.17c-0.387-4.532-4.562-6.17-8.17-6.17-3.68 0.001-7.955 1.711-8.182 6.464zM19.699 21.794c0.215-0.663 0.567-1.202 0.877-1.68 0.28-0.43 0.526-0.809 0.598-1.164 0.172-0.55 0.249-1.063 0.249-1.594 0-1.797-0.929-3.453-2.424-4.322-1.919-1.108-4.429-0.589-5.823 1.168-0.13 0.166-0.325 0.257-0.536 0.257s-0.406-0.096-0.539-0.257c-0.358-0.454-0.799-0.809-1.269-1.094-0.121-0.035-0.219-0.102-0.301-0.192-0.621-0.313-1.306-0.487-2.013-0.487-0.786 0-1.541 0.204-2.244 0.607-1.492 0.868-2.421 2.525-2.421 4.321 0 0.518 0.079 1.031 0.235 1.524 0.092 0.423 0.336 0.796 0.614 1.227 0.309 0.477 0.655 1.012 0.876 1.679 0.425 1.289 0.072 4.913 0.029 5.324 0.005 1.278 0.9 2.488 2.353 3.207 0.26-4.296 2.222-7.469 4.676-7.469 2.47 0 4.439 3.212 4.685 7.463 1.447-0.715 2.338-1.937 2.338-3.269-0.033-0.335-0.383-3.957 0.040-5.247zM28.141 27.11v-3.275h-7.278c0 1.036 0.083 2.287 0.165 3.141 0 0.046-0.011 0.085-0.011 0.134h7.124z"></path>
</symbol>
<symbol id="icon-estetical-5" viewBox="-2 -3 40 40">
<path d="M28.31 4.821l-3.58-0.895-0.895-3.58c-0.051-0.204-0.234-0.347-0.444-0.347s-0.393 0.143-0.444 0.347l-0.709 2.836c-0.804-0.406-1.69-0.617-2.6-0.613l-0.074 0c-1.255 0.006-2.412 0.665-3.094 1.764-0.453 0.73-1.236 1.166-2.094 1.166s-1.641-0.436-2.094-1.166c-0.682-1.099-1.839-1.759-3.094-1.764l-0.074-0c-0.009 0-0.017-0-0.026-0-3.090 0-5.664 2.504-5.745 5.593-0.017 0.636 0.070 1.264 0.259 1.869l2.041 6.381c0.002 2.497 0.532 6.295 1.702 8.82l2.623 5.662c0.226 0.656 0.826 1.099 1.503 1.106 0.431 0.004 0.833-0.16 1.138-0.462s0.473-0.705 0.473-1.134c0-0.042-0.006-0.085-0.018-0.126-0.52-1.821-1.561-6.956-0.159-8.813 0.349-0.462 0.83-0.687 1.47-0.687 0.624 0 1.095 0.22 1.438 0.673 1.398 1.842 0.383 6.975-0.126 8.798-0.011 0.040-0.017 0.082-0.017 0.123 0 0.828 0.656 1.556 1.463 1.622 0.045 0.004 0.090 0.006 0.134 0.006 0.679 0 1.283-0.426 1.507-1.075l2.636-5.697c1.167-2.523 1.696-6.318 1.697-8.816l2.042-6.384c0.188-0.602 0.274-1.229 0.258-1.866-0.015-0.568-0.113-1.122-0.291-1.655l3.191-0.798c0.204-0.051 0.347-0.234 0.347-0.444s-0.143-0.393-0.347-0.444zM24.265 5.777c-0.17 0.033-0.312 0.162-0.356 0.338l-0.518 2.070-0.175-0.699c-0.061-0.245-0.31-0.394-0.555-0.333s-0.394 0.31-0.333 0.555l0.619 2.475c0.051 0.204 0.234 0.347 0.444 0.347s0.393-0.143 0.444-0.347l0.621-2.486c0.021 0.161 0.034 0.324 0.038 0.488 0.014 0.536-0.059 1.064-0.215 1.566l-2.063 6.449c-0.015 0.046-0.022 0.099-0.022 0.146 0.008 2.395-0.493 6.076-1.613 8.496l-2.646 5.72c-0.008 0.016-0.014 0.033-0.020 0.051-0.098 0.301-0.387 0.494-0.704 0.468-0.315-0.026-0.593-0.326-0.621-0.656 0.21-0.777 1.83-7.057-0.045-9.528-0.521-0.687-1.251-1.036-2.168-1.036-0.934 0-1.674 0.354-2.2 1.051-1.878 2.488-0.226 8.766-0.011 9.545-0.013 0.162-0.082 0.312-0.199 0.428-0.13 0.129-0.301 0.198-0.485 0.197-0.288-0.003-0.556-0.209-0.651-0.501-0.006-0.017-0.012-0.034-0.020-0.051l-2.634-5.685c-1.026-2.215-1.534-5.481-1.607-7.857 1.253 0.41 4.226 1.239 7.807 1.239 1.779 0 3.631-0.21 5.505-0.624 0.247-0.055 0.403-0.299 0.348-0.546s-0.299-0.403-0.546-0.348c-0.225 0.050-0.449 0.096-0.673 0.14l0.998-2.533c0.093-0.235-0.023-0.501-0.258-0.594s-0.501 0.023-0.594 0.258l-1.203 3.052c-1.217 0.186-2.415 0.28-3.579 0.28-1.314 0-2.551-0.119-3.645-0.288l-1.2-3.044c-0.093-0.235-0.359-0.351-0.594-0.258s-0.351 0.359-0.258 0.594l0.994 2.523c-1.596-0.314-2.759-0.695-3.205-0.852l-1.994-6.232c-0.158-0.505-0.231-1.033-0.216-1.569 0.068-2.604 2.247-4.713 4.851-4.701l0.075 0c0.938 0.004 1.805 0.502 2.32 1.331 0.621 1.001 1.695 1.598 2.872 1.598s2.25-0.597 2.872-1.598c0.515-0.83 1.382-1.327 2.32-1.331l0.074-0c0.007 0 0.015-0 0.022-0 0.745 0 1.474 0.173 2.138 0.504l-3.33 0.833c-0.204 0.051-0.347 0.234-0.347 0.444s0.143 0.393 0.347 0.444l2.902 0.725c0.245 0.061 0.494-0.088 0.555-0.333s-0.088-0.494-0.333-0.555l-1.125-0.281 2.047-0.512c0.171-0.033 0.312-0.163 0.356-0.338l0.517-2.070 0.512 2.047c0.033 0.17 0.162 0.312 0.338 0.356l2.070 0.517-2.047 0.511z"></path>
</symbol>
<symbol id="icon-prothethis-6" viewBox="-3 -3 40 40">
<path d="M20.541 16.322l0.176-0.176c0.584-0.584 0.906-1.361 0.906-2.188 0-0.616-0.179-1.205-0.512-1.706l4.495-4.494c0.704 0.515 1.539 0.772 2.374 0.772 1.030 0 2.060-0.392 2.844-1.176 0 0 0 0 0 0 1.569-1.569 1.569-4.121-0-5.69s-4.12-1.568-5.689 0c-1.42 1.42-1.555 3.646-0.404 5.219l-4.495 4.495c-1.2-0.794-2.837-0.663-3.893 0.393l-0.176 0.176-0.505-0.505c-0.584-0.584-1.361-0.906-2.188-0.906-0.616 0-1.204 0.179-1.706 0.512l-3.175-3.176c-0.987-0.987-2.461-1.37-3.849-1.001-1.038 0.275-2.121-0.058-2.827-0.869-0.92-1.060-0.904-2.645 0.037-3.686 0.537-0.595 1.273-0.922 2.071-0.922 0.342 0 0.619-0.277 0.619-0.619s-0.277-0.619-0.619-0.619c-1.136 0-2.226 0.485-2.989 1.33-1.36 1.505-1.383 3.795-0.053 5.327 1.019 1.171 2.582 1.651 4.079 1.253 0.963-0.256 1.98 0.004 2.656 0.68l3.175 3.176c-0.793 1.2-0.662 2.837 0.393 3.893l0.505 0.505-7.322 7.322c-0.242 0.242-0.242 0.633 0 0.875s0.633 0.242 0.875 0l11.874-11.874c0.723-0.724 1.901-0.724 2.624 0s0.724 1.901-0 2.626l-15.078 15.078-2.624-2.625 1.535-1.535c0.242-0.242 0.242-0.633 0-0.875s-0.633-0.242-0.875 0l-1.972 1.972c-0.242 0.242-0.242 0.633 0 0.875l3.499 3.5c0.116 0.116 0.273 0.181 0.437 0.181 0 0 0 0 0 0 0.164 0 0.321-0.065 0.437-0.181l14.465-14.465 10.199 10.199-2.625 2.625-9.057-9.057c-0.242-0.242-0.633-0.242-0.875 0s-0.242 0.633 0 0.875l9.495 9.495c0.116 0.116 0.273 0.181 0.438 0.181s0.321-0.065 0.438-0.181l3.5-3.5c0.242-0.242 0.242-0.633 0-0.875l-10.637-10.637zM26.009 2.539c0.543-0.543 1.257-0.814 1.97-0.814s1.427 0.272 1.969 0.814c1.086 1.086 1.086 2.854 0 3.94s-2.853 1.086-3.939 0c-1.086-1.086-1.086-2.854-0-3.94zM12.666 15.447l-0.504-0.504c-0.723-0.724-0.723-1.901-0-2.625 0-0 0-0 0-0s0-0 0-0c0.351-0.351 0.817-0.544 1.313-0.544s0.962 0.193 1.313 0.544l0.505 0.505-2.625 2.625z"></path>
</symbol>
<symbol id="icon-toothbrush-7" viewBox="-1 -3 40 40">
<path d="M29.935 27.871h-16v-4.645h-0.891c0.86-0.757 1.407-1.863 1.407-3.097 0-2.277-1.852-4.129-4.129-4.129v1.032c0.285 0 0.516 0.231 0.516 0.516s-0.231 0.516-0.516 0.516h-6.194c-1.708 0-3.097 1.389-3.097 3.097 0 0.794 0.302 1.516 0.795 2.064h-0.279v4.718c-0.888 0.231-1.548 1.032-1.548 1.991 0 1.139 0.926 2.064 2.064 2.064h27.871c1.139 0 2.064-0.926 2.064-2.064s-0.926-2.064-2.064-2.064zM4.129 19.097h6.194c0.854 0 1.548-0.695 1.548-1.548 0-0.034-0.001-0.069-0.004-0.102 0.927 0.536 1.552 1.538 1.552 2.683 0 1.708-1.389 3.097-3.097 3.097h-6.194c-1.139 0-2.064-0.926-2.064-2.064s0.926-2.064 2.064-2.064zM10.839 26.323v1.548h-1.548v-3.613h3.613v3.613h-1.032v-1.548h-1.032zM6.194 25.29v2.581h-1.032v-3.613h3.097v3.613h-1.032v-2.581h-1.032zM4.129 24.258v3.613h-1.548v-3.613h1.548zM29.935 30.968h-27.871c-0.569 0-1.032-0.463-1.032-1.032s0.463-1.032 1.032-1.032h27.871c0.569 0 1.032 0.463 1.032 1.032s-0.463 1.032-1.032 1.032z"></path>
<path d="M10.839 24.774h1.032v1.032h-1.032v-1.032z"></path>
<path d="M3.613 20.129h1.032v1.032h-1.032v-1.032z"></path>
<path d="M5.677 20.129h1.032v1.032h-1.032v-1.032z"></path>
<path d="M28.387 5.161h1.032c0-1.708-1.389-3.097-3.097-3.097v1.032c1.139 0 2.064 0.926 2.064 2.065z"></path>
<path d="M28.387 6.194h1.032v1.032h-1.032v-1.032z"></path>
<path d="M9.29 12.903h1.032c0-0.982 0.309-1.893 0.831-2.644 0.523 1.138 1.221 2.030 1.853 2.829 1.052 1.333 1.961 2.484 1.961 4.46 0 3.593 1.94 4.129 3.097 4.129 0.605 0 2.581-0.298 2.581-4.129 0-2.47 0.051-3.097 0.516-3.097s0.516 0.627 0.516 3.097c0 3.831 1.975 4.129 2.581 4.129 1.157 0 3.097-0.536 3.097-4.129 0-1.976 0.909-3.128 1.962-4.46 1.258-1.592 2.683-3.397 2.683-6.895 0-3.531-2.441-6.194-5.677-6.194-2.377 0-3.356 0.854-4.071 1.478-0.454 0.396-0.689 0.587-1.091 0.587s-0.637-0.191-1.091-0.587c-0.715-0.624-1.694-1.478-4.071-1.478-2.558 0-4.647 1.693-5.386 4.185-0.185-0.501-0.292-1.040-0.292-1.604h-1.032c0 2.562-2.084 4.645-4.645 4.645v1.032c2.562 0 4.645 2.084 4.645 4.645zM16 1.032c1.99 0 2.734 0.65 3.391 1.223 0.474 0.414 0.964 0.841 1.77 0.841s1.296-0.427 1.77-0.841c0.657-0.573 1.402-1.223 3.392-1.223 2.692 0 4.645 2.171 4.645 5.161 0 3.14-1.251 4.724-2.461 6.255-1.074 1.36-2.184 2.765-2.184 5.1 0 3.097-1.554 3.097-2.064 3.097-0.97 0-1.548-1.158-1.548-3.097 0-2.662 0-4.129-1.548-4.129s-1.548 1.467-1.548 4.129c0 1.939-0.579 3.097-1.548 3.097-0.51 0-2.064 0-2.064-3.097 0-2.334-1.11-3.74-2.184-5.099-0.703-0.89-1.425-1.812-1.901-3.038 0.817-0.715 1.884-1.153 3.053-1.153v-1.032c-1.436 0-2.723-0.656-3.575-1.683 0.274-2.664 2.144-4.51 4.607-4.51zM9.806 4.945c0.567 1.234 1.563 2.23 2.797 2.797-1.234 0.567-2.23 1.563-2.797 2.797-0.567-1.234-1.563-2.23-2.797-2.797 1.234-0.567 2.23-1.563 2.797-2.797z"></path>
<path d="M3.097 16.516h1.032c0-1.423 1.158-2.581 2.581-2.581v-1.032c-1.423 0-2.581-1.158-2.581-2.581h-1.032c0 1.423-1.158 2.581-2.581 2.581v1.032c1.423 0 2.581 1.158 2.581 2.581zM3.613 12.182c0.305 0.506 0.731 0.933 1.237 1.237-0.506 0.305-0.932 0.731-1.237 1.237-0.305-0.506-0.731-0.932-1.237-1.237 0.506-0.305 0.932-0.731 1.237-1.237z"></path>
</symbol>
<symbol id="icon-ortodontics-8" viewBox="-2 -3 40 40">
<path d="M29.642 4.556c-1.671-2.517-3.805-3.903-6.010-3.903s-4.339 1.386-6.010 3.903c-0.674 1.015-1.463 3.32-1.622 3.32-0.167 0-0.948-2.306-1.622-3.32-1.671-2.517-3.805-3.903-6.010-3.903s-4.339 1.386-6.010 3.903c-1.477 2.224-2.358 5.030-2.358 7.504 0 2.274 0.756 3.752 2.312 4.519 1.434 0.706 3.354 0.707 5.531 0.703 0.347-0.001 0.703-0.001 1.050 0 0.171 0 0.341 0.001 0.509 0.001 1.966 0 3.7-0.053 5.021-0.704 0.675-0.332 1.35-1.405 1.576-1.405 0.223 0 0.902 1.073 1.576 1.405 1.434 0.706 3.354 0.707 5.531 0.703 0.347-0.001 0.703-0.001 1.050 0 0.171 0 0.341 0.001 0.509 0.001 1.965 0 3.7-0.053 5.021-0.704 1.556-0.767 2.313-2.245 2.313-4.519-0-2.475-0.882-5.28-2.359-7.504zM9.402 15.809c-0.167 0-0.336-0-0.506-0.001-0.174-0-0.351-0.001-0.528-0.001s-0.354 0-0.528 0.001c-0.17 0-0.339 0.001-0.506 0.001-4.075 0-5.861-0.355-5.861-3.749 0-2.196 0.79-4.697 2.112-6.69 1.369-2.062 3.112-3.245 4.783-3.245s3.414 1.183 4.783 3.245c0.756 1.139 1.338 2.445 1.698 3.765 0.022 0.080 0.072 0.239-0.097 0.239h-2.344c0 0-0.187-0.016-0.187-0.276 0-0.101 0-0.404 0-0.404 0-0.568-0.462-1.030-1.030-1.030h-4.711c-0.568 0-1.030 0.462-1.030 1.030v2.914c0 0.568 0.462 1.030 1.030 1.030h4.711c0.568 0 1.030-0.462 1.030-1.030 0 0 0-0.418 0-0.557 0-0.199 0.226-0.204 0.226-0.204h2.605c0.137 0 0.147 0.089 0.151 0.133 0.040 0.366 0.061 0.727 0.061 1.080 0 3.394-1.786 3.749-5.861 3.749zM24.666 15.809c-0.167 0-0.336-0-0.506-0.001-0.174-0-0.351-0.001-0.528-0.001s-0.354 0-0.528 0.001c-0.171 0-0.339 0.001-0.506 0.001-4.075 0-5.861-0.355-5.861-3.749 0-0.366 0.022-0.74 0.065-1.119 0.004-0.031 0.021-0.094 0.119-0.094h2.585c0 0 0.274 0.022 0.274 0.243 0 0.129 0 0.518 0 0.518 0 0.568 0.462 1.030 1.030 1.030h4.711c0.568 0 1.030-0.462 1.030-1.030v-2.914c0-0.568-0.462-1.030-1.030-1.030h-4.711c-0.568 0-1.030 0.462-1.030 1.030 0 0 0 0.342 0 0.456 0 0.221-0.222 0.224-0.222 0.224h-2.338c-0.107 0-0.106-0.096-0.094-0.144 0.357-1.352 0.949-2.693 1.723-3.859 1.369-2.062 3.112-3.245 4.783-3.245s3.414 1.183 4.783 3.245c1.323 1.993 2.112 4.493 2.112 6.69-0 3.395-1.786 3.749-5.861 3.749z"></path>
<path d="M26.581 18.799c-1.135-0.559-2.627-0.561-4.321-0.557-0.266 0.001-0.539 0.001-0.805 0-1.692-0.004-3.186-0.002-4.321 0.557-0.466 0.23-0.95 0.926-1.134 0.926-0.187 0-0.668-0.696-1.134-0.926-1.135-0.559-2.627-0.561-4.321-0.557-0.266 0.001-0.539 0.001-0.805 0-1.692-0.004-3.186-0.002-4.321 0.557-1.259 0.62-1.871 1.805-1.871 3.622 0 1.932 0.687 4.12 1.839 5.855 1.315 1.981 3.004 3.072 4.756 3.072s3.441-1.091 4.756-3.072c0.439-0.662 0.915-2.144 1.102-2.144 0.165 0 0.663 1.482 1.102 2.144 1.315 1.981 3.004 3.072 4.756 3.072s3.44-1.091 4.756-3.072c1.151-1.734 1.838-3.923 1.838-5.855 0-1.817-0.611-3.002-1.87-3.622zM15.080 23.18h-1.592c0 0-0.228 0.018-0.228-0.207 0-0.042 0-0.169 0-0.169 0-0.525-0.427-0.952-0.952-0.952h-3.616c-0.525 0-0.952 0.427-0.952 0.952v2.237c0 0.525 0.427 0.952 0.952 0.952h3.616c0.525 0 0.952-0.427 0.952-0.952 0 0 0-0.159 0-0.213 0-0.169 0.199-0.175 0.199-0.175h1.358c0.117 0 0.098 0.085 0.085 0.128-0.771 2.631-2.677 5.093-4.76 5.093-2.71 0-5.121-4.168-5.121-7.453 0-2.462 1.252-2.707 4.327-2.707 0.128 0 0.258 0 0.388 0.001 0.268 0.001 0.543 0.001 0.812 0 0.131-0 0.26-0.001 0.388-0.001 3.075 0 4.327 0.245 4.327 2.707 0 0.179-0.007 0.36-0.021 0.544-0.006 0.071 0.004 0.215-0.162 0.215zM21.857 29.874c-2.087 0-3.997-2.472-4.764-5.11-0.011-0.037-0.017-0.111 0.094-0.111h1.374c0 0 0.179-0.039 0.179 0.156 0 0.058 0 0.232 0 0.232 0 0.525 0.427 0.952 0.952 0.952h3.616c0.525 0 0.952-0.427 0.952-0.952v-2.237c0-0.525-0.427-0.952-0.952-0.952h-3.616c-0.525 0-0.952 0.427-0.952 0.952 0 0 0 0.131 0 0.175 0 0.182-0.198 0.2-0.198 0.2h-1.595c-0.186 0-0.18-0.113-0.184-0.169-0.017-0.199-0.025-0.397-0.025-0.591 0-2.462 1.252-2.707 4.327-2.707 0.128 0 0.257 0 0.388 0.001 0.268 0.001 0.543 0.001 0.812 0 0.131-0 0.26-0.001 0.388-0.001 3.075 0 4.327 0.245 4.327 2.707-0 3.286-2.411 7.454-5.121 7.454z"></path>
</symbol>
<symbol id="icon-arrow" viewBox="0 0 16 32">
<path fill="#ff6b08" style="fill: var(--color1, #ff6b08)" d="M15.662 15.122l-13.703-14.76c-0.449-0.483-1.176-0.482-1.624 0.003s-0.447 1.27 0.002 1.754l12.887 13.882-12.888 13.881c-0.449 0.484-0.45 1.269-0.002 1.754 0.225 0.243 0.519 0.365 0.813 0.365s0.587-0.121 0.811-0.362l13.703-14.76c0.216-0.232 0.338-0.549 0.338-0.878s-0.122-0.645-0.338-0.878z"></path>
</symbol>
<symbol id="icon-arrowToTop" viewBox="0 0 16 32">
<path  d="M15.662 15.122l-13.703-14.76c-0.449-0.483-1.176-0.482-1.624 0.003s-0.447 1.27 0.002 1.754l12.887 13.882-12.888 13.881c-0.449 0.484-0.45 1.269-0.002 1.754 0.225 0.243 0.519 0.365 0.813 0.365s0.587-0.121 0.811-0.362l13.703-14.76c0.216-0.232 0.338-0.549 0.338-0.878s-0.122-0.645-0.338-0.878z"></path>
</symbol>

</defs>
</svg>